<svg viewBox="0 0 152.673111111 49.159" width="152.673111111pt" height="49.159pt" xmlns="http://www.w3.org/2000/svg" xmlns:xlink="http://www.w3.org/1999/xlink" xmlns:h5="http://www.w3.org/1999/xhtml"><path fill="#ffffff" fill-rule="nonzero" d="M 0 0v 49.159h 152.673111111v -49.159Z "/><g transform="matrix(1 0 0 -1 5 30.707)"><use xlink:href="#g11C53412601807A4EE0C44BA88BAD8D5" x="0" y="0" fill="#edf6ff" fill-rule="nonzero"/></g><g transform="matrix(1 0 0 -1 6.786 30.707)"><use xlink:href="#g743DE3AFE6BDF09BA0536DD6E4064279" x="0" y="0" fill="#edf6ff" fill-rule="nonzero"/></g><g transform="matrix(1 0 0 -1 20.119777778 30.707)"><use xlink:href="#gAC530827EFB5B90E44F6364C2BAC313F" x="0" y="0" fill="#edf6ff" fill-rule="nonzero"/></g><g transform="matrix(1 0 0 -1 42.079555556 17.844)"><use xlink:href="#gEB9708BEC080B95ECE273FA2581656C0" x="0" y="0" fill="#edf6ff" fill-rule="nonzero"/></g><g transform="matrix(1 0 0 -1 51.579555556 17.844)"><use xlink:href="#g292C13180FD1D7AF5CF642B669F0B3A7" x="0" y="0" fill="#edf6ff" fill-rule="nonzero"/></g><g transform="matrix(1 0 0 -1 42.203055556 43.741)"><use xlink:href="#gC8EF2B25668D07B25EC7F538A95ADB37" x="0" y="0" fill="#edf6ff" fill-rule="nonzero"/></g><g transform="matrix(1 0 0 -1 51.703055556 43.741)"><use xlink:href="#g304E98A352F6FFFD3D799DA167156E4" x="0" y="0" fill="#edf6ff" fill-rule="nonzero"/></g><path fill="none" stroke="#edf6ff" stroke-width="0.912" stroke-linecap="butt" stroke-linejoin="miter" stroke-miterlimit="4" transform="translate(42.079555556 25.957)" d="M 0 0h 19.247"/><g transform="matrix(1 0 0 -1 68.504333333 30.707)"><use xlink:href="#gAC530827EFB5B90E44F6364C2BAC313F" x="0" y="0" fill="#edf6ff" fill-rule="nonzero"/></g><g transform="matrix(1 0 0 -1 88.564111111 30.707)"><use xlink:href="#gB05A878B938909BA14068CFC1439621C" x="0" y="0" fill="#edf6ff" fill-rule="nonzero"/></g><g transform="matrix(1 0 0 -1 98.064111111 30.707)"><use xlink:href="#gE2B473B8B67E074C8274DA3E362D68EF" x="0" y="0" fill="#edf6ff" fill-rule="nonzero"/></g><g transform="matrix(1 0 0 -1 107.564111111 30.707)"><use xlink:href="#gF03EF0960EA845AA83A575D75871AD68" x="0" y="0" fill="#edf6ff" fill-rule="nonzero"/></g><g transform="matrix(1 0 0 -1 112.846111111 30.707)"><use xlink:href="#gDAD88BF889943B28C1C7E606EC1AAABA" x="0" y="0" fill="#edf6ff" fill-rule="nonzero"/></g><g transform="matrix(1 0 0 -1 122.346111111 30.707)"><use xlink:href="#gF9F7A5E467C9B92F6F1B38306D2DA8DA" x="0" y="0" fill="#edf6ff" fill-rule="nonzero"/></g><g transform="matrix(1 0 0 -1 131.846111111 30.707)"><use xlink:href="#gD55ADD8B29B5D5C509C93BC61C89A70A" x="0" y="0" fill="#edf6ff" fill-rule="nonzero"/></g><defs><symbol id="g11C53412601807A4EE0C44BA88BAD8D5" overflow="visible"><path d="M 0 0m 6.745 8.398c -0.836 0 -1.634 -0.437 -2.413 -1.311c -0.209 0.874 -0.798 1.311 -1.729 1.311c -0.779 0 -1.349 -0.627 -1.748 -1.862c -0.19 -0.627 -0.285 -0.988 -0.285 -1.102c 0 -0.171 0.095 -0.266 0.304 -0.266c 0.095 0 0.152 0.019 0.209 0.057c 0.095 0.171 0.152 0.304 0.171 0.437c 0.342 1.444 0.779 2.166 1.292 2.166c 0.342 0 0.513 -0.266 0.513 -0.779c 0 -0.285 -0.038 -0.608 -0.133 -0.95l -2.09 -8.341c -0.171 -0.627 -0.19 -0.703 -0.931 -0.703c -0.342 0 -0.513 -0.152 -0.513 -0.437c 0 -0.209 0.114 -0.304 0.323 -0.304c 0.285 0 1.273 0.057 1.558 0.057c 0.361 0 1.501 -0.057 1.862 -0.057c 0.285 0 0.418 0.152 0.418 0.456c 0 0.19 -0.171 0.285 -0.532 0.285c -0.342 0 -0.855 -0.019 -0.855 0.209c 0 0.247 0.779 3.23 0.855 3.553c 0.38 -0.703 0.95 -1.064 1.71 -1.064c 1.235 0 2.318 0.627 3.268 1.9c 0.874 1.159 1.311 2.394 1.311 3.667c 0 1.653 -0.988 3.078 -2.565 3.078Z m -0.057 -0.57c 0.741 0 1.121 -0.57 1.121 -1.691c 0 -0.513 -0.114 -1.197 -0.323 -2.052c -0.437 -1.653 -0.988 -2.736 -1.653 -3.287c -0.399 -0.323 -0.76 -0.494 -1.121 -0.494c -0.551 0 -0.931 0.247 -1.14 0.76c -0.171 0.399 -0.266 0.684 -0.266 0.836l 0.969 3.971c 0.095 0.418 0.437 0.855 0.969 1.292c 0.532 0.437 1.007 0.665 1.444 0.665Z "/></symbol><symbol id="g743DE3AFE6BDF09BA0536DD6E4064279" overflow="visible"><path d="M 0 0m 7.334 9.785l 0.323 0.342l -2.907 3.059l -2.907 -3.059l 0.323 -0.342l 2.584 1.957Z "/></symbol><symbol id="gAC530827EFB5B90E44F6364C2BAC313F" overflow="visible"><path d="M 0 0m 13.262 6.973h -11.742c -0.304 0 -0.456 -0.152 -0.456 -0.437c 0 -0.285 0.152 -0.437 0.456 -0.437h 11.742c 0.304 0 0.456 0.152 0.456 0.437c 0 0.228 -0.209 0.437 -0.456 0.437Z m 0 -3.572h -11.742c -0.304 0 -0.456 -0.152 -0.456 -0.437c 0 -0.285 0.152 -0.437 0.456 -0.437h 11.742c 0.304 0 0.456 0.152 0.456 0.437c 0 0.247 -0.209 0.437 -0.456 0.437Z "/></symbol><symbol id="gEB9708BEC080B95ECE273FA2581656C0" overflow="visible"><path d="M 0 0m 5.757 6.707c 1.254 0.475 2.432 1.672 2.432 3.287c 0 0.817 -0.399 1.482 -1.178 1.995c -0.684 0.437 -1.463 0.665 -2.337 0.665c -0.855 0 -1.596 -0.228 -2.261 -0.665c -0.741 -0.494 -1.121 -1.14 -1.121 -1.957c 0 -0.627 0.418 -1.064 1.026 -1.064c 0.608 0 1.026 0.437 1.026 1.045c 0 0.627 -0.361 0.969 -1.083 1.007c 0.494 0.665 1.273 1.007 2.337 1.007c 1.14 0 1.71 -0.665 1.71 -2.014c 0 -0.798 -0.152 -1.463 -0.437 -2.014c -0.513 -0.912 -1.216 -1.083 -2.394 -1.083c -0.228 -0.038 -0.342 -0.133 -0.342 -0.304c 0 -0.285 0.133 -0.285 0.513 -0.285h 0.817c 1.425 0 2.147 -1.007 2.147 -3.04c 0 -1.615 -0.589 -3.021 -2.033 -3.021c -1.235 0 -2.147 0.418 -2.698 1.254c 0.665 -0.019 1.159 0.475 1.159 1.121c 0 0.646 -0.475 1.121 -1.121 1.121c -0.741 0 -1.121 -0.38 -1.121 -1.159c 0 -0.931 0.418 -1.672 1.254 -2.261c 0.741 -0.513 1.615 -0.76 2.584 -0.76c 1.083 0 2.014 0.361 2.831 1.064c 0.817 0.703 1.216 1.577 1.216 2.641c 0 1.786 -1.406 3.021 -2.926 3.42Z "/></symbol><symbol id="g292C13180FD1D7AF5CF642B669F0B3A7" overflow="visible"><path d="M 0 0m 9.025 11.476c 0.133 0.171 0.19 0.418 0.19 0.76h -4.598c -1.311 0 -2.052 0.076 -2.185 0.247c -0.057 0.057 -0.114 0.19 -0.152 0.361h -0.589l -0.646 -4.028h 0.627c 0.19 1.064 0.342 1.634 0.456 1.729c 0.057 0.057 0.646 0.095 1.767 0.095h 3.724l -2.014 -2.85c -1.539 -2.185 -2.299 -4.541 -2.299 -7.106c 0 -0.741 0.304 -1.102 0.931 -1.102c 0.627 0 0.931 0.361 0.931 1.102v 0.969c 0 2.888 0.456 4.978 1.349 6.251Z "/></symbol><symbol id="gC8EF2B25668D07B25EC7F538A95ADB37" overflow="visible"><path d="M 0 0m 4.75 12.654c -0.931 0 -1.748 -0.304 -2.432 -0.912c -0.684 -0.608 -1.026 -1.368 -1.026 -2.299c 0 -0.779 0.285 -1.482 0.855 -2.109c 0.133 -0.152 0.551 -0.475 1.254 -0.969c -1.729 -0.893 -2.603 -2.052 -2.603 -3.458c 0 -1.007 0.418 -1.824 1.235 -2.451c 0.76 -0.589 1.653 -0.874 2.698 -0.874c 1.064 0 1.995 0.342 2.774 1.026c 0.779 0.684 1.178 1.577 1.178 2.622c 0 0.874 -0.304 1.653 -0.931 2.356c -0.228 0.247 -0.817 0.684 -1.748 1.273c 1.463 0.779 2.185 1.767 2.185 2.926c 0 1.729 -1.653 2.869 -3.439 2.869Z m 2.451 -2.869c 0 -0.988 -0.589 -1.843 -1.767 -2.546l -2.261 1.482c -0.589 0.38 -0.893 0.874 -0.893 1.463c 0 1.14 1.235 1.843 2.451 1.843c 1.311 0 2.47 -0.931 2.47 -2.242Z m -2.451 -9.519c -1.558 0 -2.869 1.121 -2.869 2.641c 0 1.273 0.703 2.299 2.109 3.078l 2.242 -1.425c 0.912 -0.589 1.368 -1.254 1.368 -2.014c 0 -1.368 -1.425 -2.28 -2.85 -2.28Z "/></symbol><symbol id="g304E98A352F6FFFD3D799DA167156E4" overflow="visible"><path d="M 0 0m 4.731 -0.418c 2.679 0 4.009 2.166 4.009 6.498c 0 2.907 -0.608 4.845 -1.805 5.795c -0.665 0.513 -1.406 0.779 -2.185 0.779c -2.679 0 -4.009 -2.185 -4.009 -6.574c 0 -3.496 0.931 -6.498 3.99 -6.498Z m 2.128 10.374c 0.133 -0.665 0.19 -1.881 0.19 -3.648c 0 -1.748 -0.076 -3.04 -0.209 -3.876c -0.247 -1.52 -0.95 -2.28 -2.109 -2.28c -0.437 0 -0.874 0.171 -1.273 0.494c -0.513 0.437 -0.817 1.33 -0.95 2.698c -0.057 0.475 -0.076 1.463 -0.076 2.964c 0 1.653 0.057 2.812 0.152 3.439c 0.171 1.045 0.513 1.71 1.045 1.995c 0.418 0.228 0.779 0.342 1.102 0.342c 1.235 0 1.919 -1.007 2.128 -2.128Z "/></symbol><symbol id="gB05A878B938909BA14068CFC1439621C" overflow="visible"><path d="M 0 0m 6.707 12.863c -0.171 0 -0.323 -0.095 -0.437 -0.266l -5.738 -8.816v -0.684h 4.959v -1.558c 0 -0.342 -0.076 -0.57 -0.209 -0.665c -0.133 -0.095 -0.494 -0.133 -1.121 -0.133h -0.475v -0.741c 0.551 0.038 1.425 0.057 2.603 0.057c 1.178 0 2.052 -0.019 2.603 -0.057v 0.741h -0.475c -0.627 0 -0.988 0.038 -1.121 0.133c -0.133 0.095 -0.209 0.323 -0.209 0.665v 1.558h 1.862v 0.741h -1.862v 8.702c 0 0.19 -0.133 0.323 -0.38 0.323Z m -1.102 -2.356v -6.669h -4.332Z "/></symbol><symbol id="gE2B473B8B67E074C8274DA3E362D68EF" overflow="visible"><path d="M 0 0m 7.277 9.576c 0.627 0 0.931 0.323 0.931 0.969c 0 1.368 -1.026 2.109 -2.432 2.109c -1.577 0 -2.831 -0.741 -3.762 -2.242c -0.817 -1.292 -1.216 -2.755 -1.216 -4.408c 0 -2.413 0.437 -4.104 1.33 -5.111c 0.76 -0.874 1.634 -1.311 2.641 -1.311c 1.159 0 2.109 0.437 2.85 1.311c 0.703 0.836 1.064 1.843 1.064 3.002c 0 1.159 -0.342 2.147 -1.026 2.964c -0.722 0.874 -1.653 1.33 -2.774 1.33c -0.988 0 -1.748 -0.551 -2.261 -1.615v 0.114c 0 2.147 0.532 3.971 1.672 4.807c 0.494 0.361 1.007 0.532 1.52 0.532c 0.684 0 1.178 -0.19 1.501 -0.589c -0.646 0 -0.969 -0.361 -0.969 -0.931c 0 -0.532 0.399 -0.931 0.931 -0.931Z m -0.741 -3.116c 0.209 -0.437 0.323 -1.292 0.323 -2.546c 0 -1.235 -0.095 -2.052 -0.304 -2.47c -0.38 -0.779 -0.969 -1.178 -1.786 -1.178c -0.551 0 -0.969 0.19 -1.273 0.57c -0.247 0.304 -0.418 0.57 -0.494 0.779c -0.228 0.589 -0.342 1.482 -0.342 2.698c 0 0.532 0.076 1.045 0.209 1.539c 0.247 0.893 0.95 1.729 1.995 1.729c 0.741 0 1.311 -0.38 1.672 -1.121Z "/></symbol><symbol id="gF03EF0960EA845AA83A575D75871AD68" overflow="visible"><path d="M 0 0m 3.648 1.007c 0 0.551 -0.456 1.007 -1.007 1.007c -0.551 0 -1.007 -0.456 -1.007 -1.007c 0 -0.551 0.456 -1.007 1.007 -1.007c 0.551 0 1.007 0.456 1.007 1.007Z "/></symbol><symbol id="gDAD88BF889943B28C1C7E606EC1AAABA" overflow="visible"><path d="M 0 0m 4.503 12.654c -0.969 0 -1.786 -0.342 -2.489 -1.026c -0.703 -0.684 -1.064 -1.482 -1.064 -2.451c 0 -0.646 0.475 -1.121 1.064 -1.121c 0.57 0 1.045 0.494 1.045 1.064c 0 0.627 -0.456 1.064 -1.064 1.064c -0.057 0 -0.095 0 -0.133 -0.019c 0.361 0.931 1.197 1.748 2.394 1.748c 1.558 0 2.432 -1.349 2.432 -2.983c 0 -1.273 -0.646 -2.641 -1.938 -4.085l -3.572 -4.028c -0.247 -0.285 -0.228 -0.266 -0.228 -0.817h 7.049l 0.551 3.42h -0.627c -0.152 -0.969 -0.285 -1.52 -0.399 -1.691c -0.095 -0.095 -0.665 -0.133 -1.71 -0.133h -3.173l 1.843 1.805c 1.292 1.216 2.926 2.527 3.477 3.534c 0.38 0.665 0.57 1.33 0.57 1.995c 0 2.242 -1.748 3.724 -4.028 3.724Z "/></symbol><symbol id="gF9F7A5E467C9B92F6F1B38306D2DA8DA" overflow="visible"><path d="M 0 0m 2.242 5.985c 0.095 0 0.209 0.076 0.304 0.209c 0.57 0.855 1.349 1.273 2.337 1.273c 0.665 0 1.178 -0.38 1.52 -1.159c 0.209 -0.513 0.323 -1.292 0.323 -2.337c 0 -1.197 -0.152 -2.033 -0.437 -2.527c -0.475 -0.779 -1.121 -1.178 -1.938 -1.178c -1.273 0 -2.28 0.912 -2.622 1.9c 0.057 -0.019 0.095 0 0.171 0c 0.57 0 1.045 0.437 1.045 1.007c 0 0.589 -0.475 0.988 -1.045 0.988c -0.665 0 -0.95 -0.361 -0.95 -1.064c 0 -1.9 1.539 -3.515 3.439 -3.515c 1.159 0 2.147 0.418 2.945 1.254c 0.798 0.836 1.197 1.843 1.197 3.002c 0 1.102 -0.323 2.052 -0.969 2.869c -0.703 0.893 -1.577 1.33 -2.641 1.33c -0.893 0 -1.672 -0.285 -2.299 -0.855v 3.382c 0.513 -0.152 1.007 -0.228 1.52 -0.228c 0.874 0 1.634 0.209 2.28 0.646c 0.589 0.361 0.988 0.722 1.216 1.064c 0.114 0.152 0.171 0.266 0.171 0.323c 0 0.19 -0.095 0.285 -0.285 0.285c -1.045 -0.399 -1.938 -0.608 -2.66 -0.608c -0.855 0 -1.672 0.171 -2.451 0.532c -0.095 0.038 -0.171 0.057 -0.247 0.057c -0.171 0 -0.266 -0.171 -0.266 -0.532v -5.548c 0 -0.399 0 -0.57 0.342 -0.57Z "/></symbol><symbol id="gD55ADD8B29B5D5C509C93BC61C89A70A" overflow="visible"><path d="M 0 0m 12.217 -1.064c 0.836 0 1.482 0.456 1.957 1.387c 0.38 0.741 0.57 1.558 0.57 2.47c 0 0.893 -0.19 1.729 -0.57 2.489c -0.475 0.931 -1.14 1.387 -1.957 1.387c -0.874 0 -1.577 -0.437 -2.128 -1.311c -0.475 -0.76 -0.703 -1.615 -0.703 -2.546c 0 -0.95 0.228 -1.805 0.684 -2.546c 0.551 -0.893 1.254 -1.33 2.147 -1.33Z m -1.14 13.224l -8.265 -12.35c -0.133 -0.19 -0.19 -0.323 -0.19 -0.418c 0 -0.304 0.152 -0.456 0.456 -0.456c 0.152 0 0.304 0.114 0.437 0.323l 9.5 14.155c 0.114 0.171 0.171 0.285 0.171 0.38c 0 0.304 -0.152 0.456 -0.456 0.456c -0.152 0 -0.304 -0.095 -0.456 -0.285c -0.874 -1.178 -2.052 -1.767 -3.515 -1.767c -1.273 0 -2.432 0.475 -3.458 1.425c -0.437 0.418 -0.912 0.627 -1.406 0.627c -0.893 0 -1.596 -0.437 -2.128 -1.311c -0.475 -0.76 -0.703 -1.615 -0.703 -2.546c 0 -0.95 0.228 -1.805 0.684 -2.546c 0.551 -0.893 1.254 -1.33 2.147 -1.33c 0.836 0 1.482 0.456 1.957 1.387c 0.38 0.741 0.57 1.558 0.57 2.47c 0 0.703 -0.114 1.349 -0.323 1.957c 0.874 -0.475 1.767 -0.703 2.679 -0.703c 0.912 0 1.672 0.171 2.299 0.532Z m 1.159 -6.061c 0.627 0 1.102 -0.418 1.463 -1.254c 0.285 -0.646 0.418 -1.33 0.418 -2.033c 0 -0.722 -0.133 -1.406 -0.399 -2.052c -0.361 -0.836 -0.855 -1.254 -1.482 -1.254c -0.475 0 -0.893 0.399 -1.083 0.779c -0.304 0.532 -0.456 1.368 -0.456 2.508c 0 1.273 0.247 2.546 0.855 3.04c 0.228 0.171 0.456 0.266 0.684 0.266Z m -8.322 7.581c 0.627 0 1.102 -0.418 1.463 -1.254c 0.285 -0.646 0.418 -1.33 0.418 -2.033c 0 -0.722 -0.133 -1.406 -0.399 -2.052c -0.361 -0.836 -0.855 -1.254 -1.482 -1.254c -0.209 0 -0.437 0.095 -0.665 0.266c -0.703 0.532 -0.874 1.539 -0.874 3.021c 0 1.273 0.247 2.546 0.855 3.04c 0.228 0.171 0.456 0.266 0.684 0.266Z "/></symbol></defs></svg>