<svg viewBox="0 0 170.803222222 57.403" width="170.803222222pt" height="57.403pt" xmlns="http://www.w3.org/2000/svg" xmlns:xlink="http://www.w3.org/1999/xlink" xmlns:h5="http://www.w3.org/1999/xhtml"><path fill="#ffffff" fill-rule="nonzero" d="M 0 0v 57.403h 170.803222222v -57.403Z "/><g transform="matrix(1 0 0 -1 7.3 20.548)"><use xlink:href="#gFB054C74AAE24D5CD73C9E0B048B2A46" x="0" y="0" fill="#ecf7ff" fill-rule="nonzero"/></g><g transform="matrix(1 0 0 -1 18.8 20.548)"><use xlink:href="#gC49D621B13E39B9D867FCAB6530E875F" x="0" y="0" fill="#ecf7ff" fill-rule="nonzero"/></g><g transform="matrix(1 0 0 -1 35.411111111 20.548)"><use xlink:href="#g799F1282B5F869C785A09458F9D8C465" x="0" y="0" fill="#ecf7ff" fill-rule="nonzero"/></g><g transform="matrix(1 0 0 -1 58.416222222 20.548)"><use xlink:href="#g6D6FE32F4CE7062C21C400F776FFDF61" x="0" y="0" fill="#ecf7ff" fill-rule="nonzero"/></g><g transform="matrix(1 0 0 -1 75.027333333 20.548)"><use xlink:href="#gA971AA7582EF7AC6A5E1F54A1B156812" x="0" y="0" fill="#ecf7ff" fill-rule="nonzero"/></g><g transform="matrix(1 0 0 -1 98.032444444 20.548)"><use xlink:href="#g773F86281B19691552356ABC6E6EC69E" x="0" y="0" fill="#ecf7ff" fill-rule="nonzero"/></g><g transform="matrix(1 0 0 -1 109.532444444 20.548)"><use xlink:href="#gBFC974C1B4B51F7F681C381D0532DAE6" x="0" y="0" fill="#ecf7ff" fill-rule="nonzero"/></g><g transform="matrix(1 0 0 -1 58.565722222 51.897)"><use xlink:href="#g6D6FE32F4CE7062C21C400F776FFDF61" x="0" y="0" fill="#ecf7ff" fill-rule="nonzero"/></g><path fill="none" stroke="#ecf7ff" stroke-width="1.104" stroke-linecap="butt" stroke-linejoin="miter" stroke-miterlimit="4" transform="translate(7.3 30.369)" d="M 0 0h 114.031444444"/><g transform="matrix(1 0 0 -1 130.020333333 36.119)"><use xlink:href="#g4683CE494C4A652A3ECF3EA5F2943D3A" x="0" y="0" fill="#ecf7ff" fill-rule="nonzero"/></g><g transform="matrix(1 0 0 -1 154.303222222 36.119)"><use xlink:href="#g6D6FE32F4CE7062C21C400F776FFDF61" x="0" y="0" fill="#ecf7ff" fill-rule="nonzero"/></g><defs><symbol id="gFB054C74AAE24D5CD73C9E0B048B2A46" overflow="visible"><path d="M 0 0m 8.809 11.592c 0.759 0 1.127 0.391 1.127 1.173c 0 1.656 -1.242 2.553 -2.944 2.553c -1.909 0 -3.427 -0.897 -4.554 -2.714c -0.989 -1.564 -1.472 -3.335 -1.472 -5.336c 0 -2.921 0.529 -4.968 1.61 -6.187c 0.92 -1.058 1.978 -1.587 3.197 -1.587c 1.403 0 2.553 0.529 3.45 1.587c 0.851 1.012 1.288 2.231 1.288 3.634c 0 1.403 -0.414 2.599 -1.242 3.588c -0.874 1.058 -2.001 1.61 -3.358 1.61c -1.196 0 -2.116 -0.667 -2.737 -1.955v 0.138c 0 2.599 0.644 4.807 2.024 5.819c 0.598 0.437 1.219 0.644 1.84 0.644c 0.828 0 1.426 -0.23 1.817 -0.713c -0.782 0 -1.173 -0.437 -1.173 -1.127c 0 -0.644 0.483 -1.127 1.127 -1.127Z m -0.897 -3.772c 0.253 -0.529 0.391 -1.564 0.391 -3.082c 0 -1.495 -0.115 -2.484 -0.368 -2.99c -0.46 -0.943 -1.173 -1.426 -2.162 -1.426c -0.667 0 -1.173 0.23 -1.541 0.69c -0.299 0.368 -0.506 0.69 -0.598 0.943c -0.276 0.713 -0.414 1.794 -0.414 3.266c 0 0.644 0.092 1.265 0.253 1.863c 0.299 1.081 1.15 2.093 2.415 2.093c 0.897 0 1.587 -0.46 2.024 -1.357Z "/></symbol><symbol id="gC49D621B13E39B9D867FCAB6530E875F" overflow="visible"><path d="M 0 0m 6.969 8.119c 1.518 0.575 2.944 2.024 2.944 3.979c 0 0.989 -0.483 1.794 -1.426 2.415c -0.828 0.529 -1.771 0.805 -2.829 0.805c -1.035 0 -1.932 -0.276 -2.737 -0.805c -0.897 -0.598 -1.357 -1.38 -1.357 -2.369c 0 -0.759 0.506 -1.288 1.242 -1.288c 0.736 0 1.242 0.529 1.242 1.265c 0 0.759 -0.437 1.173 -1.311 1.219c 0.598 0.805 1.541 1.219 2.829 1.219c 1.38 0 2.07 -0.805 2.07 -2.438c 0 -0.966 -0.184 -1.771 -0.529 -2.438c -0.621 -1.104 -1.472 -1.311 -2.898 -1.311c -0.276 -0.046 -0.414 -0.161 -0.414 -0.368c 0 -0.345 0.161 -0.345 0.621 -0.345h 0.989c 1.725 0 2.599 -1.219 2.599 -3.68c 0 -1.955 -0.713 -3.657 -2.461 -3.657c -1.495 0 -2.599 0.506 -3.266 1.518c 0.805 -0.023 1.403 0.575 1.403 1.357c 0 0.782 -0.575 1.357 -1.357 1.357c -0.897 0 -1.357 -0.46 -1.357 -1.403c 0 -1.127 0.506 -2.024 1.518 -2.737c 0.897 -0.621 1.955 -0.92 3.128 -0.92c 1.311 0 2.438 0.437 3.427 1.288c 0.989 0.851 1.472 1.909 1.472 3.197c 0 2.162 -1.702 3.657 -3.542 4.14Z "/></symbol><symbol id="g799F1282B5F869C785A09458F9D8C465" overflow="visible"><path d="M 0 0m 16.054 6.21h -14.214c -0.368 0 -0.552 -0.161 -0.552 -0.46c 0 -0.299 0.184 -0.46 0.552 -0.46h 14.214c 0.368 0 0.552 0.161 0.552 0.46c 0 0.276 -0.276 0.46 -0.552 0.46Z "/></symbol><symbol id="g6D6FE32F4CE7062C21C400F776FFDF61" overflow="visible"><path d="M 0 0m 2.668 3.22c -0.759 0 -1.127 -0.391 -1.127 -1.173c 0 -1.725 1.403 -2.553 3.22 -2.553c 1.84 0 3.312 0.92 4.393 2.783c 0.897 1.541 1.357 3.312 1.357 5.29c 0 2.921 -0.529 4.991 -1.587 6.21c -0.897 1.035 -1.932 1.541 -3.105 1.541c -1.357 0 -2.484 -0.483 -3.381 -1.472c -0.989 -1.035 -1.472 -2.277 -1.472 -3.726c 0 -1.403 0.414 -2.599 1.242 -3.588c 0.874 -1.058 2.001 -1.587 3.358 -1.587c 1.196 0 2.116 0.644 2.737 1.932v -0.299c 0 -2.507 -0.437 -4.209 -1.334 -5.129c -0.713 -0.759 -1.472 -1.127 -2.231 -1.127c -0.92 0 -1.587 0.207 -2.024 0.644c 0.713 0 1.081 0.414 1.081 1.127c 0 0.644 -0.483 1.127 -1.127 1.127Z m 2.921 2.438c -0.897 0 -1.564 0.46 -2.024 1.38c -0.253 0.529 -0.391 1.564 -0.391 3.059c 0 1.495 0.161 2.507 0.46 3.082c 0.506 0.92 1.242 1.38 2.185 1.38c 0.943 0 1.633 -0.575 2.07 -1.725c 0.253 -0.621 0.414 -1.679 0.414 -3.174c 0 -2.001 -0.897 -4.002 -2.714 -4.002Z "/></symbol><symbol id="gA971AA7582EF7AC6A5E1F54A1B156812" overflow="visible"><path d="M 0 0m 16.054 6.302h -6.555v 6.555c 0 0.368 -0.184 0.552 -0.552 0.552c -0.368 0 -0.552 -0.184 -0.552 -0.552v -6.555h -6.555c -0.368 0 -0.552 -0.184 -0.552 -0.552c 0 -0.368 0.184 -0.552 0.552 -0.552h 6.555v -6.555c 0 -0.368 0.184 -0.552 0.552 -0.552c 0.368 0 0.552 0.184 0.552 0.552v 6.555h 6.555c 0.368 0 0.552 0.184 0.552 0.552c 0 0.299 -0.253 0.552 -0.552 0.552Z "/></symbol><symbol id="g773F86281B19691552356ABC6E6EC69E" overflow="visible"><path d="M 0 0m 5.451 15.318c -1.173 0 -2.162 -0.414 -3.013 -1.242c -0.851 -0.828 -1.288 -1.794 -1.288 -2.967c 0 -0.782 0.575 -1.357 1.288 -1.357c 0.69 0 1.265 0.598 1.265 1.288c 0 0.759 -0.552 1.288 -1.288 1.288c -0.069 0 -0.115 0 -0.161 -0.023c 0.437 1.127 1.449 2.116 2.898 2.116c 1.886 0 2.944 -1.633 2.944 -3.611c 0 -1.541 -0.782 -3.197 -2.346 -4.945l -4.324 -4.876c -0.299 -0.345 -0.276 -0.322 -0.276 -0.989h 8.533l 0.667 4.14h -0.759c -0.184 -1.173 -0.345 -1.84 -0.483 -2.047c -0.115 -0.115 -0.805 -0.161 -2.07 -0.161h -3.841l 2.231 2.185c 1.564 1.472 3.542 3.059 4.209 4.278c 0.46 0.805 0.69 1.61 0.69 2.415c 0 2.714 -2.116 4.508 -4.876 4.508Z "/></symbol><symbol id="gBFC974C1B4B51F7F681C381D0532DAE6" overflow="visible"><path d="M 0 0m 10.925 13.892c 0.161 0.207 0.23 0.506 0.23 0.92h -5.566c -1.587 0 -2.484 0.092 -2.645 0.299c -0.069 0.069 -0.138 0.23 -0.184 0.437h -0.713l -0.782 -4.876h 0.759c 0.23 1.288 0.414 1.978 0.552 2.093c 0.069 0.069 0.782 0.115 2.139 0.115h 4.508l -2.438 -3.45c -1.863 -2.645 -2.783 -5.497 -2.783 -8.602c 0 -0.897 0.368 -1.334 1.127 -1.334c 0.759 0 1.127 0.437 1.127 1.334v 1.173c 0 3.496 0.552 6.026 1.633 7.567Z "/></symbol><symbol id="g4683CE494C4A652A3ECF3EA5F2943D3A" overflow="visible"><path d="M 0 0m 16.054 8.441h -14.214c -0.368 0 -0.552 -0.184 -0.552 -0.529c 0 -0.345 0.184 -0.529 0.552 -0.529h 14.214c 0.368 0 0.552 0.184 0.552 0.529c 0 0.276 -0.253 0.529 -0.552 0.529Z m 0 -4.324h -14.214c -0.368 0 -0.552 -0.184 -0.552 -0.529c 0 -0.345 0.184 -0.529 0.552 -0.529h 14.214c 0.368 0 0.552 0.184 0.552 0.529c 0 0.299 -0.253 0.529 -0.552 0.529Z "/></symbol></defs></svg>